<?xml version="1.0" standalone="no"?>
<!DOCTYPE svg PUBLIC "-//W3C//DTD SVG 20010904//EN"
 "http://www.w3.org/TR/2001/REC-SVG-20010904/DTD/svg10.dtd">
<svg version="1.0" xmlns="http://www.w3.org/2000/svg"
 width="200.000000pt" height="200.000000pt" viewBox="0 0 200.000000 200.000000"
 preserveAspectRatio="xMidYMid meet">

<g transform="translate(0.000000,200.000000) scale(0.100000,-0.100000)"
fill="#000000" stroke="none">
<path d="M1410 1527 c-82 -23 -166 -91 -203 -164 -60 -116 -33 -268 63 -361
71 -68 121 -87 230 -87 81 0 103 4 150 26 30 14 70 40 88 57 l33 31 -3 113 -3
113 -122 3 -123 3 0 -56 0 -55 50 0 50 0 0 -39 c0 -36 -3 -40 -40 -55 -53 -21
-105 -20 -155 3 -72 33 -105 86 -105 167 0 160 188 238 309 129 l38 -34 43 44
c27 27 41 49 37 59 -8 19 -81 73 -127 93 -49 20 -156 26 -210 10z"/>
<path d="M238 1524 c-5 -4 -8 -142 -8 -306 l0 -298 163 0 c150 0 166 2 214 24
116 55 141 190 49 275 -26 24 -26 25 -7 45 47 52 44 144 -7 199 -51 55 -74 61
-242 65 -85 2 -158 0 -162 -4z m290 -136 c7 -7 12 -24 12 -38 0 -41 -18 -50
-94 -50 l-71 0 0 50 0 50 71 0 c41 0 75 -5 82 -12z m16 -229 c35 -28 35 -70 0
-98 -21 -17 -41 -21 -94 -21 l-68 0 -4 66 c-1 36 -1 68 1 70 2 2 34 4 71 4 53
0 73 -4 94 -21z"/>
<path d="M877 1524 c-4 -4 -7 -142 -7 -306 l0 -298 75 0 75 0 -2 303 -3 302
-65 3 c-36 2 -69 0 -73 -4z"/>
<path d="M334 759 c-41 -12 -91 -69 -100 -113 -10 -54 26 -119 80 -145 53 -26
79 -26 133 0 45 22 53 38 28 59 -13 10 -19 10 -33 -2 -87 -76 -203 51 -122
132 25 25 86 27 119 4 21 -15 24 -15 39 -1 14 15 14 18 -3 37 -10 11 -34 24
-54 30 -41 11 -45 11 -87 -1z"/>
<path d="M1106 760 c-41 -13 -85 -58 -97 -101 -15 -49 2 -99 46 -138 46 -40
93 -48 151 -26 50 19 63 37 44 60 -11 13 -16 13 -34 2 -84 -54 -176 7 -146 97
6 20 20 41 30 46 28 15 83 12 109 -6 21 -15 24 -15 39 -1 14 15 14 18 -3 37
-10 11 -34 24 -54 30 -41 11 -46 11 -85 0z"/>
<path d="M570 625 l0 -135 30 0 31 0 -2 135 -1 135 -29 0 -29 0 0 -135z"/>
<path d="M720 625 l0 -135 30 0 c29 0 30 2 30 45 0 41 2 45 24 45 18 0 31 -11
50 -45 22 -38 32 -45 57 -45 l30 0 -28 49 -27 50 22 24 c32 34 30 91 -4 122
-24 22 -36 25 -105 25 l-79 0 0 -135z m138 76 c8 -4 12 -19 10 -32 -2 -20 -9
-24 -45 -27 l-43 -3 0 35 c0 34 2 36 33 36 17 0 38 -4 45 -9z"/>
<path d="M1340 625 l0 -135 90 0 c89 0 90 0 90 25 0 24 -3 25 -60 25 l-60 0 0
110 0 110 -30 0 -30 0 0 -135z"/>
<path d="M1590 625 l0 -135 105 0 105 0 0 25 c0 24 -2 25 -75 25 l-75 0 0 30
c0 30 1 30 55 30 52 0 55 1 55 25 0 24 -3 25 -55 25 -54 0 -55 0 -55 30 l0 30
70 0 c68 0 70 1 70 25 l0 25 -100 0 -100 0 0 -135z"/>
</g>
</svg>
